<svg xmlns="http://www.w3.org/2000/svg" width="40" height="40" viewBox="0 0 40 40"><defs><clipPath id="q8zua"><path fill="#fff" d="M2 0h36a2 2 0 0 1 2 2v36a2 2 0 0 1-2 2H2a2 2 0 0 1-2-2V2a2 2 0 0 1 2-2z"/></clipPath></defs><g><g><path fill="#fff" d="M2 0h36a2 2 0 0 1 2 2v36a2 2 0 0 1-2 2H2a2 2 0 0 1-2-2V2a2 2 0 0 1 2-2z"/><path fill="none" stroke="#fff" stroke-linecap="round" stroke-linejoin="round" stroke-miterlimit="20" stroke-width="4" d="M2 0h36a2 2 0 0 1 2 2v36a2 2 0 0 1-2 2H2a2 2 0 0 1-2-2V2a2 2 0 0 1 2-2z" clip-path="url(&quot;#q8zua&quot;)"/></g><g><path fill="#fff" d="M24 16.829h-2.724V14.96c0-.701.444-.865.757-.865h1.923v-3.084L21.308 11c-2.94 0-3.608 2.3-3.608 3.773v2.056H16v3.178h1.7V29h3.576v-8.993h2.412z"/></g></g></svg>